<svg
    xmlns="http://www.w3.org/2000/svg"
    width="168"
    height="53"
    fill="none"
  >
 <path
      fill="#78C081"
      fill-opacity="0.15"
      fill-rule="evenodd"
      d="M59.069 52.92c-6.292.18-13.245.444-17.445-4.04-4.4-4.7-5.015-11.764-2.976-17.764 1.847-5.437 7.23-8.57 12.704-10.867 5.164-2.167 10.805-3.214 16.032-1.188 5.67 2.197 10.504 6.406 12.047 12.068 1.595 5.856.03 12.272-4.185 16.784-3.974 4.252-10.217 4.836-16.177 5.007Z"
      clip-rule="evenodd"
    />
    <path
      fill="#495E4C"
      d="M63.457 25.98V13.373h6.336c1.542 0 2.657.336 3.345 1.008.7.661 1.05 1.73 1.05 3.207 0 1.477-.35 2.552-1.05 3.224-.688.673-1.803 1.009-3.345 1.009h-3.826v4.16h-2.51Zm2.51-6.538h3.683c.712 0 1.228-.144 1.549-.432.332-.3.498-.775.498-1.423 0-.637-.166-1.099-.498-1.387-.32-.3-.837-.45-1.549-.45h-3.683v3.692ZM78.75 26.143c-1.198 0-2.081-.228-2.65-.685-.558-.468-.837-1.212-.837-2.233 0-1.045.308-1.79.925-2.234.617-.456 1.614-.684 2.99-.684h2.776c-.047-.637-.243-1.093-.587-1.37-.332-.287-.855-.431-1.566-.431-1.151 0-1.827.414-2.03 1.242h-2.313c.143-1.152.564-1.987 1.264-2.503.7-.529 1.756-.793 3.168-.793 1.542 0 2.663.324 3.363.973.7.636 1.05 1.669 1.05 3.098v5.458h-2.349v-.883c-.676.697-1.744 1.045-3.203 1.045Zm-1.138-3.026c0 .648.575.973 1.726.973.807 0 1.412-.145 1.815-.433.415-.3.682-.762.801-1.387v-.216h-2.153c-1.46 0-2.19.354-2.19 1.063ZM85.95 22.99h2.313c.226.733.98 1.1 2.26 1.1 1.234 0 1.851-.253 1.851-.757 0-.456-.777-.793-2.33-1.009-1.448-.168-2.475-.48-3.08-.937-.605-.468-.907-1.164-.907-2.089 0-.973.32-1.687.96-2.143.641-.469 1.656-.703 3.044-.703 1.435 0 2.503.252 3.203.757.712.492 1.133 1.29 1.264 2.395h-2.314a1.37 1.37 0 0 0-.712-.828c-.332-.18-.824-.27-1.477-.27-1.127 0-1.69.234-1.69.702 0 .432.712.745 2.135.937 1.566.228 2.652.558 3.257.99.605.42.907 1.087.907 2 0 1.008-.338 1.765-1.014 2.27-.664.492-1.72.738-3.168.738-1.423 0-2.497-.252-3.22-.757-.724-.504-1.151-1.303-1.282-2.395ZM100.535 26.143c-1.625 0-2.806-.378-3.541-1.135-.724-.768-1.086-2.005-1.086-3.71 0-1.694.368-2.925 1.103-3.693.736-.769 1.91-1.153 3.524-1.153 1.471 0 2.575.306 3.31.919.736.6 1.169 1.567 1.299 2.9h-2.313c-.131-.565-.374-.973-.73-1.225-.356-.252-.86-.378-1.512-.378-.82 0-1.418.21-1.798.63-.368.408-.552 1.075-.552 2 0 .912.184 1.579.552 1.999.38.42.979.63 1.798.63 1.257 0 2.005-.534 2.242-1.603h2.313c-.13 1.333-.563 2.306-1.299 2.918-.735.6-1.839.9-3.31.9ZM109.929 26.143c-1.199 0-2.082-.228-2.652-.685-.558-.468-.836-1.212-.836-2.233 0-1.045.308-1.79.925-2.234.617-.456 1.614-.684 2.99-.684h2.776c-.047-.637-.243-1.093-.587-1.37-.332-.287-.854-.431-1.566-.431-1.151 0-1.827.414-2.029 1.242h-2.314c.143-1.152.564-1.987 1.264-2.503.7-.529 1.756-.793 3.168-.793 1.542 0 2.663.324 3.363.973.7.636 1.05 1.669 1.05 3.098v5.458h-2.349v-.883c-.676.697-1.744 1.045-3.203 1.045Zm-1.139-3.026c0 .648.575.973 1.726.973.807 0 1.412-.145 1.815-.433.415-.3.682-.762.801-1.387v-.216h-2.153c-1.46 0-2.189.354-2.189 1.063ZM117.519 25.98V12.472h2.35v13.51h-2.35ZM125.932 13.372h2.651l4.271 9.943 4.254-9.943h2.669L134.26 25.98h-2.812l-5.516-12.61ZM141.155 24.99c-.748-.768-1.121-2-1.121-3.692 0-1.694.373-2.925 1.121-3.693.747-.769 1.957-1.153 3.63-1.153 1.661 0 2.859.384 3.595 1.153.747.768 1.121 2 1.121 3.692 0 .169-.012.42-.036.757h-7.029c.154 1.357.943 2.036 2.367 2.036 1.068 0 1.774-.367 2.118-1.1h2.42c-.237 1.166-.742 1.982-1.513 2.45-.771.469-1.785.703-3.043.703-1.673 0-2.883-.384-3.63-1.153Zm3.648-6.484c-.664 0-1.192.138-1.584.414-.391.276-.641.732-.747 1.369h4.662c-.107-.637-.356-1.093-.747-1.37-.38-.275-.908-.413-1.584-.413ZM153.497 25.98h-2.349v-9.366h2.349v.937c.617-.733 1.614-1.099 2.99-1.099 1.305 0 2.254.336 2.847 1.009.605.672.908 1.753.908 3.242v5.278h-2.349v-5.278c0-.709-.172-1.225-.516-1.55-.333-.323-.861-.485-1.584-.485-.819 0-1.406.21-1.762.63-.356.408-.534 1.075-.534 2v4.683ZM165.313 16.614h2.527v2.216h-2.527v3.602c0 .469.107.81.32 1.027.214.204.57.306 1.068.306H168v2.216h-1.37c-1.282 0-2.213-.258-2.794-.775-.582-.516-.872-1.345-.872-2.485V18.83h-1.353v-2.216h1.353V14.58h2.349v2.035Z"
    />
    <path
      fill="#78C081"
      d="M65.632 39.67h2.516v1.474h-2.516v6.852h-1.55v-6.852h-1.455V39.67h1.455v-.288c0-1.195.259-2.065.775-2.61.517-.544 1.345-.816 2.484-.816h.902v1.473h-.823c-.622 0-1.076.155-1.36.464-.285.31-.428.806-.428 1.49v.287ZM72.583 47.996h-1.55V39.67h1.55v1.073c.538-.8 1.476-1.2 2.816-1.2h.711v1.473h-1.154c-.844 0-1.45.224-1.82.672-.369.438-.553 1.153-.553 2.145v4.163ZM79.309 47.1c-.654-.683-.981-1.772-.981-3.267 0-1.494.327-2.583.98-3.266.665-.683 1.735-1.025 3.212-1.025 1.466 0 2.52.342 3.164 1.025.653.683.98 1.772.98 3.267 0 .053-.005.133-.016.24v.24H79.91c.053.832.29 1.446.712 1.841.432.395 1.07.593 1.914.593 1.233 0 2.02-.427 2.357-1.281h1.613c-.221.982-.675 1.67-1.36 2.065-.675.395-1.55.593-2.626.593-1.477 0-2.547-.342-3.211-1.025Zm3.227-6.18c-.791 0-1.403.175-1.835.528-.422.341-.675.902-.76 1.681h5.173c-.084-.79-.337-1.356-.76-1.697-.41-.342-1.017-.513-1.818-.513ZM89.387 45.467h1.535c.137.448.4.773.79.976.391.203.945.305 1.662.305 1.402 0 2.104-.342 2.104-1.025 0-.31-.19-.555-.57-.737-.38-.181-.991-.336-1.835-.464-1.297-.17-2.214-.448-2.752-.833-.528-.395-.791-.971-.791-1.729 0-.811.28-1.414.838-1.81.56-.405 1.44-.608 2.642-.608s2.11.214 2.72.64c.612.417.992 1.09 1.14 2.018h-1.535c-.137-.448-.39-.774-.759-.976-.37-.203-.902-.305-1.598-.305-1.297 0-1.945.326-1.945.977 0 .299.184.54.553.72.37.171.955.32 1.756.449 1.36.213 2.304.502 2.832.865.537.362.806.917.806 1.665 0 1.686-1.218 2.53-3.654 2.53-1.212 0-2.135-.214-2.768-.64-.633-.428-1.023-1.1-1.17-2.018ZM100.148 35.988h1.551v4.803c.569-.832 1.566-1.249 2.989-1.249 1.192 0 2.062.294 2.61.881.549.587.823 1.521.823 2.802v4.771h-1.534v-4.77c0-.77-.19-1.33-.57-1.682-.379-.352-.97-.528-1.772-.528-.896 0-1.545.224-1.945.672-.401.438-.601 1.153-.601 2.145v4.163h-1.551V35.989ZM120.125 48.124c-1.097 0-1.898-.197-2.404-.592-.506-.395-.76-1.03-.76-1.905 0-.908.28-1.553.839-1.938.569-.395 1.482-.592 2.736-.592h2.8c0-.758-.189-1.308-.569-1.65-.38-.352-.986-.528-1.819-.528-.665 0-1.176.113-1.535.337-.358.213-.601.56-.727 1.04h-1.535c.148-.96.528-1.66 1.139-2.097.612-.438 1.519-.657 2.721-.657 1.35 0 2.331.283 2.942.849.623.555.934 1.446.934 2.674v4.931h-1.551v-1.072c-.622.8-1.692 1.2-3.211 1.2Zm-1.613-2.561c0 .416.158.72.474.912.327.182.828.273 1.503.273.896 0 1.566-.166 2.009-.497.453-.33.733-.86.838-1.585v-.384h-2.404c-1.614 0-2.42.427-2.42 1.28ZM128.461 47.996V39.67h1.55v8.326h-1.55Zm-.016-9.943c-.158-.16-.237-.427-.237-.8 0-.374.079-.64.237-.8.158-.16.422-.24.791-.24.369 0 .633.08.791.24.158.16.237.426.237.8 0 .373-.079.64-.237.8-.158.16-.422.24-.791.24-.369 0-.633-.08-.791-.24ZM135.17 47.996h-1.551V39.67h1.551v1.073c.537-.8 1.476-1.2 2.815-1.2h.712v1.473h-1.155c-.843 0-1.45.224-1.819.672-.369.438-.553 1.153-.553 2.145v4.163Z"
    />
    <path
      fill="#78C081"
      fillRule="evenodd"
      d="M2.16 20.439C.154 27.69-.305 35.289.173 42.75c-.216 2.372 1.057 4.663 2.75 6.297C5.4 51.425 10.28 51.1 13.484 50.766c5.834-.564 8.43-5.957 8.771-11.152.262-8.98.326-18.416.307-27.412-.004-.256-.003-.525-.003-.802.002-1.185.005-2.509-.352-3.56-.868-2.936-3.567-3.99-6.28-3.427a8.308 8.308 0 0 0-1.575.693 24.964 24.964 0 0 0-4.539 3.195 25.116 25.116 0 0 0-6.464 8.748c-.147.303-.295.717-.433 1.1-.078.217-.153.424-.221.595-.142.355-.287.852-.413 1.286-.043.146-.083.285-.121.409ZM.173 42.75c.846-7.594 2.037-15.156 4.747-22.304a23.034 23.034 0 0 1 7.097-9.62c.291-.249.723-.57 1.076-.832l.2-.15s2.184-1.887 3.367-1.99c1.183-.102 1.831-.018 2.098 1.279l.083.62.019.685c-.019 3.107-.032 8.85 0 12.014.04 4.562.093 9.125.2 13.685l.072 3.326a14.94 14.94 0 0 1-.358 3.081c-.512 2.396-1.815 4.729-4.178 5.672-1.522.551-3.175.767-4.777.957-1.877.164-3.842.261-5.575-.508C2.126 47.416.417 45.252.172 42.75Z"
      clipRule="evenodd"
    />
    <path
      fill="#78C081"
      d="M47.697 22.44c1.025 2.572 2.894 6.593 3.54 11.424-.463-8.827-1.066-8.851-1.364-10.205a44.625 44.625 0 0 0-1.91-6.368A25.185 25.185 0 0 0 36.414 4.84a4.583 4.583 0 0 0-1.419-.501c-.285-.016-.45-.064-.848-.064-2.709-.153-4.758 1.602-5.225 4.177-.245 1.116-.179 2.485-.179 3.585-.032 5.97-.045 13.378.054 19.383.04 2.158.066 4.316.125 6.474-.01 1.165.08 2.329.267 3.48.894 5.226 3.877 9.265 9.576 9.497 2.834.203 5.857.322 8.493-.95 2.068-1.132 2.91-3.044 3.516-5.154.396-1.38.932-2.792 3.186-5.048-2.254 1.354-3 2.034-4.507 5.865-2.02 3.408-3.47 3.825-7.243 3.59a27.446 27.446 0 0 1-3.133-.422c-.939-.187-1.966-.366-2.806-.817-2.591-1.312-3.661-4.256-3.963-6.989a18.574 18.574 0 0 1-.072-2.981c.09-3.757.198-9.147.198-12.954 0-3.806.056-9.244 0-12.995.01-1.11-.227-2.81.346-3.749.406-.675 1.069-.885 2.164-.367a23.955 23.955 0 0 1 10.799 10.4c.693 1.416 1.51 3.027 1.954 4.14ZM25.869 10.623a.783.783 0 0 0-.349-1.043.765.765 0 0 0-1.03.353l-3.635 7.445a.783.783 0 0 0 .349 1.043c.38.19.842.032 1.03-.353l3.635-7.445Z"
    />
    <path
      fill="#78C081"
      d="M24.957 10.623a.783.783 0 0 1 .35-1.043.765.765 0 0 1 1.03.353l3.634 7.445a.783.783 0 0 1-.349 1.043.765.765 0 0 1-1.03-.353l-3.634-7.445Z"
    />
    <path
      fill="#78C081"
      d="M24.617.779c0-.43.344-.779.769-.779.425 0 .77.349.77.779v9.866c0 .43-.345.778-.77.778a.774.774 0 0 1-.77-.778V.779ZM48.39 47.882a43.805 43.805 0 0 0-1.463-2.591c-.26-.423-.532-.826-.797-1.228-.069-.105-.146-.2-.22-.3-.073-.102-.153-.196-.234-.295-.08-.098-.168-.19-.258-.293a1.44 1.44 0 0 0-.14-.14c-.049-.047-.1-.095-.146-.147.312.065.606.174.866.322.131.072.256.15.374.236.12.084.233.172.34.267.422.37.775.788 1.048 1.239.276.447.479.921.606 1.411a2.93 2.93 0 0 1 .023 1.519Z"
    />
    <path
      fill="#78C081"
      d="M48.165 42.869a3.28 3.28 0 0 0-1.029-1.343 4.816 4.816 0 0 0-1.486-.791 8.43 8.43 0 0 0-1.687-.346 28.297 28.297 0 0 0-1.78-.128l.503-.509c.097.743.21 1.481.29 2.226.05.372.084.748.143 1.092.023.176.06.343.104.508.046.164.103.325.173.482.282.637.734 1.19 1.311 1.608a4.64 4.64 0 0 0 2.08.843 4.05 4.05 0 0 1-2.362-.432 4.19 4.19 0 0 1-1.754-1.686 4.162 4.162 0 0 1-.414-1.151c-.087-.4-.136-.769-.193-1.13-.115-.747-.212-1.488-.309-2.23l-.072-.553.578.043c.62.044 1.237.119 1.847.225.629.105 1.239.29 1.813.549a4.466 4.466 0 0 1 1.51 1.11c.412.452.668 1.014.734 1.613ZM49.215 42.58c-.2-.331-.34-.702-.41-1.087a4.756 4.756 0 0 1-.07-1.172 6.855 6.855 0 0 1 .55-2.189 7.204 7.204 0 0 1 1.135-1.852c.241-.278.512-.52.806-.722.292-.194.6-.357.919-.489.313-.138.631-.24.945-.339.314-.098.623-.183.937-.27.623-.164 1.23-.328 1.804-.538a5.415 5.415 0 0 0 1.544-.842c.498-.38.898-.898 1.17-1.514.205-.514.375-1.056.563-1.582-.053.153.12.695.149.88.157.99.224 1.985.201 2.97-.007.648-.053 1.29-.137 1.923l-.038.244-.133.696c-.062.304-.13.61-.213.917a6.209 6.209 0 0 1-.759 1.726 5.923 5.923 0 0 1-.547.713c-.202.215-.404.41-.611.598a9.785 9.785 0 0 1-1.325 1.007 8.888 8.888 0 0 1-3.002 1.213 11.922 11.922 0 0 0 3.825-2.846c.354-.384.67-.814.94-1.282.246-.466.425-.98.53-1.525.06-.277.109-.562.153-.856l.063-.444.032-.224.026-.208c.053-.583.077-1.173.07-1.767 0-.603.338-.021-.235.447a5.857 5.857 0 0 1-1.858.99c-.64.215-1.283.354-1.907.493-.625.14-1.25.268-1.821.456a4.429 4.429 0 0 0-.813.35 3.434 3.434 0 0 0-.71.532c-.455.436-.85.948-1.173 1.523a6.442 6.442 0 0 0-.74 1.9 3.806 3.806 0 0 0 .14 2.17Z"
    />
  </svg>