<svg
    xmlns="http://www.w3.org/2000/svg"
    width="20"
    height="20"
    fill="none"
  >
    <g clip-path="url(#clip0_92_412)">
      <path
        d="M19.495 15.6978C19.4703 15.6741 19.4273 15.6382 19.3588 15.5904C19.2077 15.485 18.9766 15.352 18.6542 15.191L18.6401 15.1839L18.6264 15.176C18.4534 15.0754 18.2028 14.9364 17.8724 14.7569C17.5394 14.5761 17.2364 14.4091 16.9642 14.2561L19.495 15.6978ZM19.495 15.6978C19.4976 15.7182 19.4998 15.7496 19.4997 15.7943V15.7955C19.4997 15.9972 19.4614 16.2892 19.3703 16.6844L19.3702 16.6848C19.2786 17.0834 19.188 17.3728 19.1019 17.5674L19.1018 17.5674L19.0982 17.5762C19.0393 17.7164 18.9058 17.9009 18.6489 18.1241C18.3955 18.3445 18.0446 18.5829 17.5862 18.8372C16.758 19.2861 15.9591 19.5001 15.1847 19.5001C14.9515 19.5001 14.7256 19.4847 14.5068 19.4551C14.2934 19.4256 14.0445 19.372 13.7574 19.2913C13.4569 19.2066 13.2451 19.1415 13.1149 19.0952L13.1148 19.0952C12.9728 19.0448 12.7138 18.9492 12.335 18.8072C12.3349 18.8071 12.3348 18.8071 12.3347 18.807L12.1592 19.2752M19.495 15.6978L8.97752 17.8404C9.70662 18.2949 10.5354 18.6878 11.4634 19.0195M12.1592 19.2752C11.7805 19.1328 11.5486 19.0477 11.4634 19.0195M12.1592 19.2752C12.538 19.4172 12.8008 19.5143 12.9475 19.5664M12.1592 19.2752L12.9475 19.5664M11.4634 19.0195L11.6316 18.5486C11.6299 18.548 11.6282 18.5474 11.6265 18.5468M11.4634 19.0195L11.6206 18.5448C11.6225 18.5455 11.6245 18.5461 11.6265 18.5468M11.6265 18.5468C10.7295 18.2258 9.93537 17.8483 9.24199 17.4161L9.24011 17.4149C8.06874 16.692 6.84646 15.6983 5.57398 14.4259M11.6265 18.5468L5.57398 14.4259M5.57398 14.4259C4.30156 13.1533 3.30779 11.9308 2.58521 10.7596L2.584 10.7577C2.15168 10.064 1.77405 9.27009 1.45333 8.37282C1.41981 8.27319 1.33113 8.0327 1.19342 7.66505L1.19335 7.66488C1.05116 7.2857 0.955602 7.02695 0.905323 6.88511L5.57398 14.4259ZM12.9475 19.5664C13.0942 19.6185 13.3193 19.6873 13.6221 19.7726L12.9475 19.5664ZM19.5592 17.7696C19.3604 18.2435 18.7829 18.7454 17.8267 19.2756C16.9366 19.7585 16.0557 20.0001 15.1847 20.0001L19.5592 17.7696ZM19.5592 17.7696C19.6638 17.5331 19.7628 17.2088 19.8575 16.7968L19.5592 17.7696ZM16.1695 13.7955L16.1487 13.7798C16.1208 13.7589 16.0134 13.6836 15.8096 13.5426C15.6211 13.4126 15.4771 13.3269 15.3724 13.2762C15.2962 13.2396 15.2371 13.2277 15.1913 13.2267C15.1847 13.2283 15.1595 13.2355 15.1129 13.2621C15.0412 13.303 14.9435 13.3757 14.8191 13.4939C14.5557 13.7444 14.3141 14.0164 14.0946 14.311L14.0945 14.3111C13.8448 14.646 13.5792 14.9565 13.298 15.243L13.2978 15.2432C13.149 15.3946 12.9969 15.5257 12.842 15.6216C12.6911 15.715 12.5014 15.7977 12.2876 15.7977C12.1181 15.7977 11.9482 15.7524 11.7951 15.6961L11.7941 15.6957C11.6594 15.6457 11.5446 15.5985 11.4563 15.5552L11.4509 15.5526L11.451 15.5526C11.3637 15.5085 11.2341 15.4322 11.0731 15.3325C10.9929 15.283 10.9316 15.2455 10.8884 15.2193C10.8667 15.2062 10.8507 15.1966 10.8398 15.1902C10.837 15.1885 10.8349 15.1873 10.8333 15.1864L10.8322 15.1858L10.8232 15.1809C9.49048 14.4413 8.33933 13.5904 7.37438 12.6258L7.37422 12.6257C6.40962 11.6606 5.55855 10.5095 4.81916 9.17656L4.81385 9.16697L4.8132 9.16568C4.81233 9.16417 4.81119 9.1622 4.80973 9.15973C4.80338 9.14892 4.79389 9.13304 4.78076 9.11137C4.75465 9.06826 4.71708 9.00702 4.66766 8.92698C4.66764 8.92695 4.66761 8.92691 4.66759 8.92688L5.09302 8.66417L16.1695 13.7955ZM16.1695 13.7955L16.1919 13.8089M16.1695 13.7955L16.1919 13.8089M16.1919 13.8089C16.4328 13.9533 16.69 14.1025 16.9641 14.2561L16.1919 13.8089ZM6.72364 4.62762L6.72352 4.62737C6.67314 4.52278 6.58744 4.37887 6.45721 4.19024L6.72364 4.62762ZM6.72364 4.62762C6.76026 4.70352 6.77221 4.76265 6.77325 4.80852M6.72364 4.62762L6.77325 4.80852M6.20416 3.82983L6.19106 3.808C6.04638 3.56679 5.8974 3.30939 5.74379 3.03607C5.59055 2.76347 5.42375 2.46044 5.243 2.12766L5.24297 2.12759C5.06372 1.79746 4.92443 1.54659 4.82372 1.37284L4.81597 1.35946L4.80906 1.34564C4.64797 1.02334 4.51491 0.792193 4.40955 0.641083C4.36177 0.572549 4.3259 0.529532 4.30215 0.504821C4.28157 0.502245 4.25005 0.5 4.2054 0.5C4.00367 0.5 3.71158 0.538303 3.31613 0.629344L3.31592 0.629392C2.91778 0.720877 2.62802 0.81181 2.43253 0.89795L2.42447 0.9015L2.42444 0.901428C2.28448 0.960183 2.10008 1.09368 1.87682 1.35061C1.6565 1.60415 1.41802 1.95504 1.16361 2.41353C0.714679 3.24147 0.500854 4.04035 0.500854 4.81495C0.500854 5.04875 0.516011 5.27456 0.545913 5.49269L6.20416 3.82983ZM6.20416 3.82983L6.2194 3.85023M6.20416 3.82983L6.2194 3.85023M6.2194 3.85023C6.24082 3.87886 6.31701 3.98736 6.45709 4.19007L6.2194 3.85023ZM0.709511 6.242L0.709561 6.24218C0.794075 6.54282 0.85914 6.75479 0.905308 6.88507L0.709511 6.242ZM0.709511 6.242C0.628747 5.95511 0.575185 5.70596 0.545923 5.49276L0.709511 6.242ZM6.77325 4.80852C6.77158 4.81517 6.7644 4.84035 6.73776 4.88708C6.69688 4.95879 6.62425 5.05646 6.50616 5.18081L6.77325 4.80852ZM19.5146 15.7186C19.5146 15.7187 19.5138 15.7177 19.5124 15.7158C19.514 15.7177 19.5147 15.7186 19.5146 15.7186ZM4.30445 8.20545C4.35363 8.33844 4.40123 8.45551 4.44658 8.54625L6.50601 5.18098C6.25562 5.44435 5.9836 5.68593 5.68908 5.90547L5.68893 5.90558C5.35447 6.15509 5.04358 6.42076 4.75695 6.70226L4.75688 6.70233C4.60556 6.851 4.47454 7.00311 4.37861 7.15793C4.28512 7.30884 4.20242 7.49854 4.20242 7.71243C4.20242 7.88187 4.24759 8.05167 4.30445 8.20545ZM4.28414 0.487435C4.28224 0.486058 4.28129 0.485245 4.28129 0.485183C4.28129 0.485121 4.28224 0.485809 4.28414 0.487435Z"
        fill="#78C081"
        stroke="#577A5B"
      />
    </g>
    <defs>
      <clipPath id="clip0_92_412">
        <rect width="20" height="20" fill="white" />
      </clipPath>
    </defs>
  </svg>